<?xml version="1.0" standalone="no" ?>
<!DOCTYPE svg PUBLIC "-//W3C//DTD SVG 1.1//EN"
    "http://www.w3.org/Graphics/SVG/1.1/DTD/svg11.dtd">
<svg
    xmlns="http://www.w3.org/2000/svg"
    width="164.83200073242188"
    height="41.58700180053711"
    viewBox="0 0 164.832 41.587"
>
  <g id="roadr" transform="translate(-65.607 -255.89)">
    <path
            id="Path_11546"
            data-name="Path 11546"
            d="M76.383,282.157a10.664,10.664,0,0,0-5.556,3.76,10.434,10.434,0,0,0-2.189,6.51V305.5q-.11,1.123-1.488,1.122-1.432,0-1.543-1.122V292.539a13.734,13.734,0,0,1,10.776-13.525,1.056,1.056,0,0,1,1.123.337,1.934,1.934,0,0,1,.448,1.235Q77.954,281.932,76.383,282.157Z"
            transform="translate(0 -9.15)"
            fill="#000"
        />
    <path
            id="Path_11547"
            data-name="Path 11547"
            d="M128.2,302.614a13.923,13.923,0,0,1-18.408,1.066,14.218,14.218,0,0,1-4.883-7.857q-.336-1.516,1.516-1.516,1.4,0,1.515,1.516a11.227,11.227,0,0,0,3.986,5.612,10.79,10.79,0,1,0-3.873-11.562q-.338,1.516-1.572,1.516-1.852,0-1.572-1.516a13.655,13.655,0,0,1,4.827-7.745,13.232,13.232,0,0,1,8.643-3.087,13.811,13.811,0,0,1,9.822,23.572Z"
            transform="translate(-15.557 -9.178)"
            fill="#000"
        />
    <path
            id="Path_11548"
            data-name="Path 11548"
            d="M201.982,306.655a1.34,1.34,0,0,1-1.516-1.516v-1.514q0-1.011-.505-1.01a1.6,1.6,0,0,0-1.01.505,13.967,13.967,0,0,1-17.9.561,13.927,13.927,0,0,1-4.826-7.857q-.337-1.516,1.516-1.516,1.4,0,1.515,1.516a11.037,11.037,0,0,0,3.928,5.612,10.588,10.588,0,0,0,6.51,2.189,10.394,10.394,0,0,0,7.633-3.143,10.637,10.637,0,0,0,3.143-7.634,10.755,10.755,0,0,0-21.1-2.974q-.45,1.516-1.627,1.516-1.852,0-1.516-1.516a13.782,13.782,0,0,1,13.469-10.831,12.769,12.769,0,0,1,8.7,3.031l.505.449a1.576,1.576,0,0,0,1.067.561q.506,0,.505-1.01v-1.515a1.515,1.515,0,1,1,3.031,0v24.581A1.339,1.339,0,0,1,201.982,306.655Z"
            transform="translate(-43.828 -9.178)"
            fill="#000"
        />
    <path
            id="Path_11549"
            data-name="Path 11549"
            d="M271.108,293.442a13.312,13.312,0,0,1-9.765,4.035,13.765,13.765,0,0,1-8.7-2.974,13.924,13.924,0,0,1-4.827-7.857q-.337-1.516,1.571-1.516,1.4,0,1.516,1.516a11.038,11.038,0,0,0,3.929,5.612,10.81,10.81,0,0,0,14.143-.954,10.637,10.637,0,0,0,3.143-7.634,10.776,10.776,0,0,0-17.286-8.587,11.151,11.151,0,0,0-3.817,5.612c.075,0-.019.244-.28.73a1.457,1.457,0,0,1-1.347.786q-1.908,0-1.571-1.516a12.743,12.743,0,0,1,4.77-7.745,13.386,13.386,0,0,1,8.756-3.087,13.534,13.534,0,0,1,8.643,3.031l.561.449a1.724,1.724,0,0,0,1.01.561q.559,0,.561-1.01V257.456a1.516,1.516,0,1,1,3.031,0v26.174A13.346,13.346,0,0,1,271.108,293.442Zm-1.122-20.547a2.768,2.768,0,0,0,.252.225q.139.113.309.225Z"
            transform="translate(-72.209 0)"
            fill="#000"
        />
    <path
            id="Path_11550"
            data-name="Path 11550"
            d="M329.012,282.157a10.661,10.661,0,0,0-5.556,3.76,10.433,10.433,0,0,0-2.189,6.51V305.5q-.11,1.123-1.488,1.122-1.432,0-1.543-1.122V292.539a13.734,13.734,0,0,1,10.776-13.525,1.055,1.055,0,0,1,1.122.337,1.931,1.931,0,0,1,.449,1.235Q330.583,281.932,329.012,282.157Z"
            transform="translate(-100.144 -9.15)"
            fill="#000"
        />
  </g>
</svg>
